<svg xmlns="http://www.w3.org/2000/svg" xmlns:xlink="http://www.w3.org/1999/xlink" width="2000" zoomAndPan="magnify" viewBox="0 0 1500 1499.999933" height="2000" preserveAspectRatio="xMidYMid meet" version="1.0"><defs><clipPath id="dbf54e9747"><path d="M 13.417969 0.0390625 L 1486.492188 0.0390625 L 1486.492188 1499.945312 L 13.417969 1499.945312 Z M 13.417969 0.0390625 " clip-rule="nonzero"/></clipPath><clipPath id="303452c78f"><path d="M 73.550781 71.285156 L 525.203125 71.285156 L 525.203125 527.5 L 73.550781 527.5 Z M 73.550781 71.285156 " clip-rule="nonzero"/></clipPath><clipPath id="ef8d6d7373"><path d="M 0.550781 0.285156 L 452.203125 0.285156 L 452.203125 456.5 L 0.550781 456.5 Z M 0.550781 0.285156 " clip-rule="nonzero"/></clipPath><clipPath id="d139ed8d53"><rect x="0" width="453" y="0" height="457"/></clipPath><clipPath id="aef8453941"><path d="M 73.578125 71.285156 L 525.167969 71.285156 L 525.167969 524.109375 L 73.578125 524.109375 Z M 73.578125 71.285156 " clip-rule="nonzero"/></clipPath><clipPath id="8260656d69"><path d="M 974.792969 71.285156 L 1426.449219 71.285156 L 1426.449219 527.5 L 974.792969 527.5 Z M 974.792969 71.285156 " clip-rule="nonzero"/></clipPath><clipPath id="d49bc526ae"><path d="M 0.792969 0.285156 L 452.449219 0.285156 L 452.449219 456.5 L 0.792969 456.5 Z M 0.792969 0.285156 " clip-rule="nonzero"/></clipPath><clipPath id="5c92d49674"><rect x="0" width="453" y="0" height="457"/></clipPath><clipPath id="ac3bd0e793"><path d="M 974.820312 71.285156 L 1426.414062 71.285156 L 1426.414062 524.109375 L 974.820312 524.109375 Z M 974.820312 71.285156 " clip-rule="nonzero"/></clipPath><clipPath id="df093a0f41"><path d="M 525.203125 523.441406 L 976.859375 523.441406 L 976.859375 979.65625 L 525.203125 979.65625 Z M 525.203125 523.441406 " clip-rule="nonzero"/></clipPath><clipPath id="31f5129fbc"><path d="M 0.203125 0.441406 L 451.859375 0.441406 L 451.859375 456.65625 L 0.203125 456.65625 Z M 0.203125 0.441406 " clip-rule="nonzero"/></clipPath><clipPath id="51d87dbf4e"><rect x="0" width="452" y="0" height="457"/></clipPath><clipPath id="eaa5369a3c"><path d="M 525.230469 523.441406 L 976.824219 523.441406 L 976.824219 976.265625 L 525.230469 976.265625 Z M 525.230469 523.441406 " clip-rule="nonzero"/></clipPath><clipPath id="e840d300ad"><path d="M 73.550781 979.65625 L 525.203125 979.65625 L 525.203125 1435.871094 L 73.550781 1435.871094 Z M 73.550781 979.65625 " clip-rule="nonzero"/></clipPath><clipPath id="f8e9097651"><path d="M 0.550781 0.65625 L 452.203125 0.65625 L 452.203125 456.871094 L 0.550781 456.871094 Z M 0.550781 0.65625 " clip-rule="nonzero"/></clipPath><clipPath id="33c3d9491c"><rect x="0" width="453" y="0" height="457"/></clipPath><clipPath id="a4c160e9eb"><path d="M 73.578125 979.65625 L 525.167969 979.65625 L 525.167969 1432.480469 L 73.578125 1432.480469 Z M 73.578125 979.65625 " clip-rule="nonzero"/></clipPath><clipPath id="f1b00aa48b"><path d="M 974.792969 979.65625 L 1426.449219 979.65625 L 1426.449219 1435.871094 L 974.792969 1435.871094 Z M 974.792969 979.65625 " clip-rule="nonzero"/></clipPath><clipPath id="9bd927e397"><path d="M 0.792969 0.65625 L 452.449219 0.65625 L 452.449219 456.871094 L 0.792969 456.871094 Z M 0.792969 0.65625 " clip-rule="nonzero"/></clipPath><clipPath id="d3112706c8"><rect x="0" width="453" y="0" height="457"/></clipPath><clipPath id="7000f8c041"><path d="M 974.820312 979.65625 L 1426.414062 979.65625 L 1426.414062 1432.480469 L 974.820312 1432.480469 Z M 974.820312 979.65625 " clip-rule="nonzero"/></clipPath><clipPath id="4c50750ae3"><path d="M 523.140625 67.230469 L 974.792969 67.230469 L 974.792969 523.441406 L 523.140625 523.441406 Z M 523.140625 67.230469 " clip-rule="nonzero"/></clipPath><clipPath id="4389cfebb7"><path d="M 0.140625 0.230469 L 451.792969 0.230469 L 451.792969 456.441406 L 0.140625 456.441406 Z M 0.140625 0.230469 " clip-rule="nonzero"/></clipPath><clipPath id="ff37f4069a"><rect x="0" width="452" y="0" height="457"/></clipPath><clipPath id="425c703389"><path d="M 523.167969 67.230469 L 974.757812 67.230469 L 974.757812 520.054688 L 523.167969 520.054688 Z M 523.167969 67.230469 " clip-rule="nonzero"/></clipPath><clipPath id="cda8f27e63"><path d="M 976.859375 527.5 L 1428.515625 527.5 L 1428.515625 983.710938 L 976.859375 983.710938 Z M 976.859375 527.5 " clip-rule="nonzero"/></clipPath><clipPath id="9e00df143b"><path d="M 0.859375 0.5 L 452.515625 0.5 L 452.515625 456.710938 L 0.859375 456.710938 Z M 0.859375 0.5 " clip-rule="nonzero"/></clipPath><clipPath id="1096009c8b"><rect x="0" width="453" y="0" height="457"/></clipPath><clipPath id="64b58e83a0"><path d="M 976.886719 527.5 L 1428.480469 527.5 L 1428.480469 980.324219 L 976.886719 980.324219 Z M 976.886719 527.5 " clip-rule="nonzero"/></clipPath><clipPath id="bb80a2e68d"><path d="M 523.140625 979.65625 L 974.792969 979.65625 L 974.792969 1435.871094 L 523.140625 1435.871094 Z M 523.140625 979.65625 " clip-rule="nonzero"/></clipPath><clipPath id="bcdcb4be80"><path d="M 0.140625 0.65625 L 451.792969 0.65625 L 451.792969 456.871094 L 0.140625 456.871094 Z M 0.140625 0.65625 " clip-rule="nonzero"/></clipPath><clipPath id="25a260ef38"><rect x="0" width="452" y="0" height="457"/></clipPath><clipPath id="2cfd7f196a"><path d="M 523.167969 979.65625 L 974.757812 979.65625 L 974.757812 1432.480469 L 523.167969 1432.480469 Z M 523.167969 979.65625 " clip-rule="nonzero"/></clipPath><clipPath id="343539d5e5"><path d="M 73.550781 521.894531 L 525.203125 521.894531 L 525.203125 978.105469 L 73.550781 978.105469 Z M 73.550781 521.894531 " clip-rule="nonzero"/></clipPath><clipPath id="866fcca019"><path d="M 0.550781 0.894531 L 452.203125 0.894531 L 452.203125 457.105469 L 0.550781 457.105469 Z M 0.550781 0.894531 " clip-rule="nonzero"/></clipPath><clipPath id="985b1154f7"><rect x="0" width="453" y="0" height="458"/></clipPath><clipPath id="c1324d9190"><path d="M 73.578125 521.894531 L 525.167969 521.894531 L 525.167969 974.71875 L 73.578125 974.71875 Z M 73.578125 521.894531 " clip-rule="nonzero"/></clipPath><clipPath id="050589e61b"><rect x="0" width="1500" y="0" height="1500"/></clipPath></defs><g transform="matrix(1, 0, 0, 1, 0, 0.000000000000112861)"><g clip-path="url(#050589e61b)"><g clip-path="url(#dbf54e9747)"><path stroke-linecap="butt" transform="matrix(6.860985, 0, 0, 6.860985, 13.416829, -0.00002)" fill="none" stroke-linejoin="miter" d="M 0.000166121 0.00569634 L 214.703174 0.00569634 L 214.703174 218.619517 L 0.000166121 218.619517 Z M 0.000166121 0.00569634 " stroke="#010101" stroke-width="0.87451" stroke-opacity="1" stroke-miterlimit="4"/></g><g clip-path="url(#303452c78f)"><g transform="matrix(1, 0, 0, 1, 73, 71)"><g clip-path="url(#d139ed8d53)"><g clip-path="url(#ef8d6d7373)"><path fill="#010101" d="M 0.550781 0.285156 L 452.207031 0.285156 L 452.207031 457.234375 L 0.550781 457.234375 Z M 0.550781 0.285156 " fill-opacity="1" fill-rule="nonzero"/></g></g></g></g><g clip-path="url(#aef8453941)"><path stroke-linecap="butt" transform="matrix(6.860985, 0, 0, 6.860985, 73.549186, 71.284947)" fill="none" stroke-linejoin="miter" d="M 0.00421788 0.0000305481 L 65.82419 0.0000305481 L 65.82419 66.484426 L 0.00421788 66.484426 Z M 0.00421788 0.0000305481 " stroke="#010101" stroke-width="0.87451" stroke-opacity="1" stroke-miterlimit="4"/></g><g clip-path="url(#8260656d69)"><g transform="matrix(1, 0, 0, 1, 974, 71)"><g clip-path="url(#5c92d49674)"><g clip-path="url(#d49bc526ae)"><path fill="#000000" d="M 0.792969 0.285156 L 452.449219 0.285156 L 452.449219 457.234375 L 0.792969 457.234375 Z M 0.792969 0.285156 " fill-opacity="1" fill-rule="nonzero"/></g></g></g></g><g clip-path="url(#ac3bd0e793)"><path stroke-linecap="butt" transform="matrix(6.860985, 0, 0, 6.860985, 974.794941, 71.284947)" fill="none" stroke-linejoin="miter" d="M 0.00369788 0.0000305481 L 65.82424 0.0000305481 L 65.82424 66.484426 L 0.00369788 66.484426 Z M 0.00369788 0.0000305481 " stroke="#010101" stroke-width="0.87451" stroke-opacity="1" stroke-miterlimit="4"/></g><g clip-path="url(#df093a0f41)"><g transform="matrix(1, 0, 0, 1, 525, 523)"><g clip-path="url(#51d87dbf4e)"><g clip-path="url(#31f5129fbc)"><path fill="#000000" d="M 0.203125 0.441406 L 451.859375 0.441406 L 451.859375 457.390625 L 0.203125 457.390625 Z M 0.203125 0.441406 " fill-opacity="1" fill-rule="nonzero"/></g></g></g></g><g clip-path="url(#eaa5369a3c)"><path stroke-linecap="butt" transform="matrix(6.860985, 0, 0, 6.860985, 525.205068, 523.442095)" fill="none" stroke-linejoin="miter" d="M 0.00370219 -0.000100374 L 65.824244 -0.000100374 L 65.824244 66.484295 L 0.00370219 66.484295 Z M 0.00370219 -0.000100374 " stroke="#010101" stroke-width="0.87451" stroke-opacity="1" stroke-miterlimit="4"/></g><g clip-path="url(#e840d300ad)"><g transform="matrix(1, 0, 0, 1, 73, 979)"><g clip-path="url(#33c3d9491c)"><g clip-path="url(#f8e9097651)"><path fill="#000000" d="M 0.550781 0.65625 L 452.207031 0.65625 L 452.207031 457.605469 L 0.550781 457.605469 Z M 0.550781 0.65625 " fill-opacity="1" fill-rule="nonzero"/></g></g></g></g><g clip-path="url(#a4c160e9eb)"><path stroke-linecap="butt" transform="matrix(6.860985, 0, 0, 6.860985, 73.549186, 979.655752)" fill="none" stroke-linejoin="miter" d="M 0.00421788 0.0000726399 L 65.82419 0.0000726399 L 65.82419 66.484468 L 0.00421788 66.484468 Z M 0.00421788 0.0000726399 " stroke="#010101" stroke-width="0.87451" stroke-opacity="1" stroke-miterlimit="4"/></g><g clip-path="url(#f1b00aa48b)"><g transform="matrix(1, 0, 0, 1, 974, 979)"><g clip-path="url(#d3112706c8)"><g clip-path="url(#9bd927e397)"><path fill="#000000" d="M 0.792969 0.65625 L 452.449219 0.65625 L 452.449219 457.605469 L 0.792969 457.605469 Z M 0.792969 0.65625 " fill-opacity="1" fill-rule="nonzero"/></g></g></g></g><g clip-path="url(#7000f8c041)"><path stroke-linecap="butt" transform="matrix(6.860985, 0, 0, 6.860985, 974.794941, 979.655752)" fill="none" stroke-linejoin="miter" d="M 0.00369788 0.0000726399 L 65.82424 0.0000726399 L 65.82424 66.484468 L 0.00369788 66.484468 Z M 0.00369788 0.0000726399 " stroke="#010101" stroke-width="0.87451" stroke-opacity="1" stroke-miterlimit="4"/></g><g clip-path="url(#4c50750ae3)"><g transform="matrix(1, 0, 0, 1, 523, 67)"><g clip-path="url(#ff37f4069a)"><g clip-path="url(#4389cfebb7)"><path fill="#f6f6f6" d="M 0.140625 0.230469 L 451.792969 0.230469 L 451.792969 457.175781 L 0.140625 457.175781 Z M 0.140625 0.230469 " fill-opacity="1" fill-rule="nonzero"/></g></g></g></g><g clip-path="url(#425c703389)"><path stroke-linecap="butt" transform="matrix(6.860985, 0, 0, 6.860985, 523.138932, 67.228517)" fill="none" stroke-linejoin="miter" d="M 0.00423211 0.000284411 L 65.824204 0.000284411 L 65.824204 66.48411 L 0.00423211 66.48411 Z M 0.00423211 0.000284411 " stroke="#f6f6f6" stroke-width="0.87451" stroke-opacity="1" stroke-miterlimit="4"/></g><g clip-path="url(#cda8f27e63)"><g transform="matrix(1, 0, 0, 1, 976, 527)"><g clip-path="url(#1096009c8b)"><g clip-path="url(#9e00df143b)"><path fill="#f6f6f6" d="M 0.859375 0.5 L 452.515625 0.5 L 452.515625 457.445312 L 0.859375 457.445312 Z M 0.859375 0.5 " fill-opacity="1" fill-rule="nonzero"/></g></g></g></g><g clip-path="url(#64b58e83a0)"><path stroke-linecap="butt" transform="matrix(6.860985, 0, 0, 6.860985, 976.861053, 527.498479)" fill="none" stroke-linejoin="miter" d="M 0.0037408 0.000221752 L 65.824283 0.000221752 L 65.824283 66.484617 L 0.0037408 66.484617 Z M 0.0037408 0.000221752 " stroke="#f6f6f6" stroke-width="0.87451" stroke-opacity="1" stroke-miterlimit="4"/></g><g clip-path="url(#bb80a2e68d)"><g transform="matrix(1, 0, 0, 1, 523, 979)"><g clip-path="url(#25a260ef38)"><g clip-path="url(#bcdcb4be80)"><path fill="#f6f6f6" d="M 0.140625 0.65625 L 451.792969 0.65625 L 451.792969 457.605469 L 0.140625 457.605469 Z M 0.140625 0.65625 " fill-opacity="1" fill-rule="nonzero"/></g></g></g></g><g clip-path="url(#2cfd7f196a)"><path stroke-linecap="butt" transform="matrix(6.860985, 0, 0, 6.860985, 523.138932, 979.655752)" fill="none" stroke-linejoin="miter" d="M 0.00423211 0.0000726399 L 65.824204 0.0000726399 L 65.824204 66.484468 L 0.00423211 66.484468 Z M 0.00423211 0.0000726399 " stroke="#f6f6f6" stroke-width="0.87451" stroke-opacity="1" stroke-miterlimit="4"/></g><g clip-path="url(#343539d5e5)"><g transform="matrix(1, 0, 0, 1, 73, 521)"><g clip-path="url(#985b1154f7)"><g clip-path="url(#866fcca019)"><path fill="#f6f6f6" d="M 0.550781 0.894531 L 452.207031 0.894531 L 452.207031 457.84375 L 0.550781 457.84375 Z M 0.550781 0.894531 " fill-opacity="1" fill-rule="nonzero"/></g></g></g></g><g clip-path="url(#c1324d9190)"><path stroke-linecap="butt" transform="matrix(6.860985, 0, 0, 6.860985, 73.549186, 521.893183)" fill="none" stroke-linejoin="miter" d="M 0.00421788 0.000196503 L 65.82419 0.000196503 L 65.82419 66.484592 L 0.00421788 66.484592 Z M 0.00421788 0.000196503 " stroke="#f6f6f6" stroke-width="0.87451" stroke-opacity="1" stroke-miterlimit="4"/></g></g></g></svg>